<?xml version="1.0" encoding="UTF-8" standalone="no"?>
<svg
   xmlns:dc="http://purl.org/dc/elements/1.1/"
   xmlns:cc="http://creativecommons.org/ns#"
   xmlns:rdf="http://www.w3.org/1999/02/22-rdf-syntax-ns#"
   xmlns:svg="http://www.w3.org/2000/svg"
   xmlns="http://www.w3.org/2000/svg"
   xmlns:sodipodi="http://sodipodi.sourceforge.net/DTD/sodipodi-0.dtd"
   xmlns:inkscape="http://www.inkscape.org/namespaces/inkscape"
   id="ae7ad495-543d-4c4b-9483-8059c5566fe6"
   data-name="Layer 1"
   width="1009.54"
   height="839.64"
   viewBox="0 0 1009.54 839.64"
   version="1.1"
   sodipodi:docname="icon.svg"
   inkscape:version="0.92.4 (f8dce91, 2019-08-02)"
   inkscape:export-filename="/home/darroyo/Documents/Projects/Dribbble blog/img/footer.png"
   inkscape:export-xdpi="72"
   inkscape:export-ydpi="72">
  <metadata
     id="metadata4316">
    <rdf:RDF>
      <cc:Work
         rdf:about="">
        <dc:format>image/svg+xml</dc:format>
        <dc:type
           rdf:resource="http://purl.org/dc/dcmitype/StillImage" />
        <dc:title>personalization</dc:title>
      </cc:Work>
    </rdf:RDF>
  </metadata>
  <sodipodi:namedview
     pagecolor="#ffffff"
     bordercolor="#666666"
     borderopacity="1"
     objecttolerance="10"
     gridtolerance="10"
     guidetolerance="10"
     inkscape:pageopacity="0"
     inkscape:pageshadow="2"
     inkscape:window-width="1853"
     inkscape:window-height="1025"
     id="namedview4314"
     showgrid="false"
     inkscape:zoom="0.67258357"
     inkscape:cx="227.5628"
     inkscape:cy="327.77675"
     inkscape:window-x="67"
     inkscape:window-y="27"
     inkscape:window-maximized="1"
     inkscape:current-layer="ae7ad495-543d-4c4b-9483-8059c5566fe6" />
  <defs
     id="defs4067">
    <linearGradient
       id="f9d7795c-47ab-4264-adf8-fc9a284cd87a"
       x1="491.14"
       y1="640.96"
       x2="698.09"
       y2="640.96"
       gradientUnits="userSpaceOnUse"
       gradientTransform="translate(-95.229991,-30.18)">
      <stop
         offset="0"
         stop-color="gray"
         stop-opacity="0.25"
         id="stop4060" />
      <stop
         offset="0.54"
         stop-color="gray"
         stop-opacity="0.12"
         id="stop4062" />
      <stop
         offset="1"
         stop-color="gray"
         stop-opacity="0.1"
         id="stop4064" />
    </linearGradient>
  </defs>
  <title
     id="title4069">personalization</title>
  <path
     d="m 333.01,658.57 c 0,0 21,-3.36 33.6,11.48 0,0 -9.24,7.28 -29.12,-2.8 z"
     id="path4075"
     style="fill:#66cc99;fill-opacity:1"
     inkscape:connector-curvature="0"
     inkscape:export-xdpi="36"
     inkscape:export-ydpi="36" />
  <path
     d="m 330.77,658.24 c 0,0 -13.4,16.58 -6.83,34.85 0,0 10.92,-4.37 12.11,-26.63 z"
     id="path4077"
     style="fill:#66cc99;fill-opacity:1"
     inkscape:connector-curvature="0"
     inkscape:export-xdpi="36"
     inkscape:export-ydpi="36" />
  <path
     d="m 318.77,631.13 c 0,0 8.4,-15.4 42,6.16 0,0 -4.48,10.36 -19.32,9.52 -14.84,-0.84 -18.81,-7.56 -22.68,-15.68 z"
     id="path4079"
     style="fill:#66cc99;fill-opacity:1"
     inkscape:connector-curvature="0"
     inkscape:export-xdpi="36"
     inkscape:export-ydpi="36" />
  <path
     d="m 316.56,630.02 c 0,0 -17.43,-2 -19.12,37.9 0,0 11.05,2.3 18.9,-10.33 7.85,-12.63 4.6,-19.69 0.22,-27.57 z"
     id="path4081"
     style="fill:#66cc99;fill-opacity:1"
     inkscape:connector-curvature="0"
     inkscape:export-xdpi="36"
     inkscape:export-ydpi="36" />
  <path
     d="m 306.4,598.2 c 0,0 9.8,-27.17 45.37,-7.85 0,0 -8.12,24.93 -41.73,17.09 z"
     id="path4083"
     style="fill:#66cc99;fill-opacity:1"
     inkscape:connector-curvature="0"
     inkscape:export-xdpi="36"
     inkscape:export-ydpi="36" />
  <path
     d="m 295.48,557.59 c 0,0 18.48,-27.44 51.25,-2 0,0 -11.48,25.76 -48.45,11.76 z"
     id="path4085"
     style="fill:#66cc99;fill-opacity:1"
     inkscape:connector-curvature="0"
     inkscape:export-xdpi="36"
     inkscape:export-ydpi="36" />
  <path
     d="m 291.56,518.95 c 0,0 21.56,-25.2 54,0 0,0 -20.45,22.12 -54,6.44 z"
     id="path4087"
     style="fill:#66cc99;fill-opacity:1"
     inkscape:connector-curvature="0"
     inkscape:export-xdpi="36"
     inkscape:export-ydpi="36" />
  <path
     d="m 288.2,481.43 c 0,0 21.84,-26.33 52.93,-1.4 0,0 -24.65,23.24 -52.93,7.56 z"
     id="path4089"
     style="fill:#66cc99;fill-opacity:1"
     inkscape:connector-curvature="0"
     inkscape:export-xdpi="36"
     inkscape:export-ydpi="36" />
  <g
     id="g5151"
     transform="translate(2.6019088,-3.3453092)"
     inkscape:export-xdpi="36"
     inkscape:export-ydpi="36">
    <path
       id="path4091"
       d="m 287.55809,452.40531 c 0,0 23,-33.88 52.09,-10.92 0,0 -24.65,29.13 -52.09,17.36 z"
       inkscape:connector-curvature="0"
       style="fill:#66cc99;fill-opacity:1" />
  </g>
  <path
     d="m 295.48,409.18 c 0,0 24.36,-33.6 52.65,-7.84 0,0 -28.85,29.12 -52.65,14 z"
     id="path4093"
     style="fill:#66cc99;fill-opacity:1"
     inkscape:connector-curvature="0"
     inkscape:export-xdpi="36"
     inkscape:export-ydpi="36" />
  <path
     d="m 303.61,374.39 c 0,0 28.83,-31.57 54,-19 0,0 -30.06,33.53 -55.26,27.37 z"
     id="path4095"
     style="fill:#66cc99;fill-opacity:1"
     inkscape:connector-curvature="0"
     inkscape:export-xdpi="36"
     inkscape:export-ydpi="36" />
  <path
     d="m 313.68,341.42 c 0,0 33.33,-38.65 52.65,-25.77 0,0 -24.52,30 -55,33.05 z"
     id="path4097"
     style="fill:#66cc99;fill-opacity:1"
     inkscape:connector-curvature="0"
     inkscape:export-xdpi="36"
     inkscape:export-ydpi="36" />
  <path
     d="m 328.23,303.16 c 0,0 29.14,-31.58 50.42,-23.74 0,0 -24.92,32.77 -54.33,33.61 z"
     id="path4099"
     style="fill:#66cc99;fill-opacity:1"
     inkscape:connector-curvature="0"
     inkscape:export-xdpi="36"
     inkscape:export-ydpi="36" />
  <path
     d="m 341.41,267.38 c 0,0 32.2,-30.24 46.2,-24.92 0,0 -23.24,33.6 -47.6,31.64 z"
     id="path4101"
     style="fill:#66cc99;fill-opacity:1"
     inkscape:connector-curvature="0"
     inkscape:export-xdpi="36"
     inkscape:export-ydpi="36" />
  <path
     d="m 354.29,234.34 c 0,0 27.72,-36.12 42.84,-33.32 0,0 -16.8,32.2 -42.84,37 z"
     id="path4103"
     inkscape:connector-curvature="0"
     style="fill:#6c63ff"
     inkscape:export-xdpi="36"
     inkscape:export-ydpi="36" />
  <path
     d="m 368.26,189.82 c 0,0 24.51,-27.7 37.74,-27.63 0,0 -19.34,37 -38.74,36.66 z"
     id="path4105"
     inkscape:connector-curvature="0"
     style="fill:#6c63ff"
     inkscape:export-xdpi="36"
     inkscape:export-ydpi="36" />
  <path
     d="m 376.55,160.13 23.66,-57.68 c 0,0 1.19,52.14 -26.68,68.38 z"
     id="path4107"
     style="fill:#66cc99;fill-opacity:1"
     inkscape:connector-curvature="0"
     inkscape:export-xdpi="36"
     inkscape:export-ydpi="36" />
  <path
     d="m 386.15,96.52 c 0,0 3.92,-48.16 1.4,-52.08 0,0 16.93,40 -1.56,73.36 z"
     id="path4109"
     style="fill:#66cc99;fill-opacity:1"
     inkscape:connector-curvature="0"
     inkscape:export-xdpi="36"
     inkscape:export-ydpi="36" />
  <path
     d="m 305.49,597.55 c 0,0 -24.55,-15.21 -40.43,22 0,0 21.84,14.5 43.31,-12.51 z"
     id="path4111"
     style="fill:#66cc99;fill-opacity:1"
     inkscape:connector-curvature="0"
     inkscape:export-xdpi="36"
     inkscape:export-ydpi="36" />
  <path
     d="m 294.7,556.04 c 0,0 -30.1,-13.73 -44.71,25.12 0,0 23.26,16 47.45,-15.3 z"
     id="path4113"
     style="fill:#66cc99;fill-opacity:1"
     inkscape:connector-curvature="0"
     inkscape:export-xdpi="36"
     inkscape:export-ydpi="36" />
  <path
     d="m 290.16,521.26 c 0,0 -21.56,-25.2 -54,0 0,0 20.44,22.12 54,6.44 z"
     id="path4115"
     style="fill:#66cc99;fill-opacity:1"
     inkscape:connector-curvature="0"
     inkscape:export-xdpi="36"
     inkscape:export-ydpi="36" />
  <path
     d="m 287.47,481.43 c 0,0 -21.85,-26.33 -52.93,-1.4 0,0 24.64,23.24 52.93,7.56 z"
     id="path4117"
     style="fill:#66cc99;fill-opacity:1"
     inkscape:connector-curvature="0"
     inkscape:export-xdpi="36"
     inkscape:export-ydpi="36" />
  <path
     d="m 290.16,449.06 c 0,0 -15.32,-37.95 -48.62,-21.63 0,0 18,33.66 47.27,27.93 z"
     id="path4119"
     style="fill:#66cc99;fill-opacity:1"
     inkscape:connector-curvature="0"
     inkscape:export-xdpi="36"
     inkscape:export-ydpi="36" />
  <g
     id="g5148"
     transform="translate(8.7890626e-6)"
     inkscape:export-xdpi="36"
     inkscape:export-ydpi="36">
    <path
       id="path4121"
       transform="translate(-95.23,-30.18)"
       d="m 392.64,439.17 c 0,0 -15.22,-38.61 -49,-20.71 0,0 20.68,35.39 47.5,26.68 z"
       style="fill:#66cc99;fill-opacity:1"
       inkscape:connector-curvature="0" />
  </g>
  <path
     d="m 306.85,374.59 c 0,0 -6,-42.34 -33.95,-46.13 0,0 5.93,44.64 30.22,53.75 z"
     id="path4123"
     style="fill:#66cc99;fill-opacity:1"
     inkscape:connector-curvature="0"
     inkscape:export-xdpi="36"
     inkscape:export-ydpi="36" />
  <path
     d="m 314.4,341.49 c 0,0 -2.35,-51 -25.5,-52.77 0,0 0.78,38.7 22.89,60 z"
     id="path4125"
     style="fill:#66cc99;fill-opacity:1"
     inkscape:connector-curvature="0"
     inkscape:export-xdpi="36"
     inkscape:export-ydpi="36" />
  <path
     d="m 330.64,301.7 c 0,0 -6.91,-42.4 -29,-47.59 0,0 2.74,41.07 26.81,58 z"
     id="path4127"
     style="fill:#66cc99;fill-opacity:1"
     inkscape:connector-curvature="0"
     inkscape:export-xdpi="36"
     inkscape:export-ydpi="36" />
  <path
     d="m 344.03,267.69 c 0,0 -0.24,-44.18 -13.74,-50.67 0,0 -8.37,40 9.83,56.31 z"
     id="path4129"
     style="fill:#66cc99;fill-opacity:1"
     inkscape:connector-curvature="0"
     inkscape:export-xdpi="36"
     inkscape:export-ydpi="36" />
  <path
     d="m 355.32,233.82 c 0,0 -1.9,-45.5 -15.87,-51.91 0,0 -4.79,36 13.77,54.88 z"
     id="path4131"
     style="fill:#66cc99;fill-opacity:1"
     inkscape:connector-curvature="0"
     inkscape:export-xdpi="36"
     inkscape:export-ydpi="36" />
  <path
     d="m 370.22,193.42 c 0,0 -0.09,-37 -10.07,-45.68 0,0 -9.92,40.54 4.86,53.12 z"
     id="path4133"
     style="fill:#66cc99;fill-opacity:1"
     inkscape:connector-curvature="0"
     inkscape:export-xdpi="36"
     inkscape:export-ydpi="36" />
  <path
     d="m 375.37,158.31 -9.7,-61.59 c 0,0 -13.2,50.47 10.16,72.7 z"
     id="path4135"
     style="fill:#66cc99;fill-opacity:1"
     inkscape:connector-curvature="0"
     inkscape:export-xdpi="36"
     inkscape:export-ydpi="36" />
  <path
     d="m 377.27,97.1 c 0,0 -24.93,-41.39 -24.41,-46 0,0 2.64,43.4 34,65 z"
     id="path4137"
     style="fill:#66cc99;fill-opacity:1"
     inkscape:connector-curvature="0"
     inkscape:export-xdpi="36"
     inkscape:export-ydpi="36" />
  <path
     d="m 380.19,84.88 c 0,0 -23.52,-58.81 -34.16,-63.57 0,0 33.6,17.08 36.12,61.89 z"
     id="path4139"
     style="fill:#66cc99;fill-opacity:1"
     inkscape:connector-curvature="0"
     inkscape:export-xdpi="36"
     inkscape:export-ydpi="36" />
  <path
     d="m 367.13,199.17 -1.61,-0.49 c 19.85,-64.73 24.81,-106 13.95,-116.34 l 1.16,-1.22 c 11.5,10.91 6.84,51.7 -13.5,118.05 z"
     id="path4141"
     inkscape:connector-curvature="0"
     style="fill:#444053"
     inkscape:export-xdpi="36"
     inkscape:export-ydpi="36" />
  <path
     d="m 312.47,350.69 -2.37,-0.84 c 2.1,-5.93 4.37,-11.95 6.75,-17.89 20.72,-51.64 38.36,-99.67 49.67,-136.55 l 2.07,-1 c -11.33,36.95 -28.65,86.83 -49.4,138.53 -2.37,5.88 -4.63,11.88 -6.72,17.75 z"
     id="path4143"
     inkscape:connector-curvature="0"
     style="fill:#444053"
     inkscape:export-xdpi="36"
     inkscape:export-ydpi="36" />
  <path
     d="m 362.56,707.02 c -0.32,-0.36 -32.5,-36.58 -54.92,-98.44 A 364.43,364.43 0 0 1 285.94,495.82 C 284.4,447.69 294.5,393.95 311.8,345.14 l 1.88,2.2 c -38.83,109.56 -23.4,203.45 -2.94,260 22.2,61.29 54,97.13 54.32,97.48 z"
     id="path4145"
     style="opacity:1;fill:#483e37;fill-opacity:1"
     inkscape:connector-curvature="0"
     inkscape:export-xdpi="36"
     inkscape:export-ydpi="36" />
  <rect
     x="642.79999"
     y="289.82001"
     width="8.8599997"
     height="73.019997"
     rx="2.29"
     ry="2.29"
     id="rect4147"
     style="fill:#1a1a1a"
     inkscape:export-xdpi="36"
     inkscape:export-ydpi="36" />
  <rect
     x="348.37"
     y="232.61"
     width="4.9699998"
     height="24.040001"
     rx="2.29"
     ry="2.29"
     id="rect4149"
     style="fill:#1a1a1a"
     inkscape:export-xdpi="36"
     inkscape:export-ydpi="36" />
  <rect
     x="348.19"
     y="276.63"
     width="5.5999999"
     height="41.84"
     rx="2.29"
     ry="2.29"
     id="rect4151"
     style="fill:#1a1a1a"
     inkscape:export-xdpi="36"
     inkscape:export-ydpi="36" />
  <rect
     x="348.28003"
     y="333.10999"
     width="5.3299999"
     height="42.200001"
     rx="2.29"
     ry="2.29"
     id="rect4153"
     style="fill:#1a1a1a"
     inkscape:export-xdpi="36"
     inkscape:export-ydpi="36" />
  <rect
     x="351.17999"
     y="153.17"
     width="296.39999"
     height="602.39001"
     rx="38.990002"
     ry="38.990002"
     id="rect4155"
     style="fill:#333333"
     inkscape:export-xdpi="36"
     inkscape:export-ydpi="36" />
  <path
     d="m 605.77,168.82 h -34 v 4.09 a 19.38,19.38 0 0 1 -19.39,19.38 H 444.25 a 19.38,19.38 0 0 1 -19.39,-19.38 v -4.09 h -31.83 a 23.54,23.54 0 0 0 -23.54,23.54 v 523.97 a 23.54,23.54 0 0 0 23.54,23.54 h 212.74 a 23.54,23.54 0 0 0 23.54,-23.54 V 192.4 a 23.54,23.54 0 0 0 -23.54,-23.58 z"
     id="path4157"
     style="fill:#ffffff"
     inkscape:connector-curvature="0"
     inkscape:export-xdpi="36"
     inkscape:export-ydpi="36" />
  <rect
     x="470.79004"
     y="171.16"
     width="41.389999"
     height="8.3999996"
     rx="3.8699999"
     ry="3.8699999"
     id="rect4159"
     style="fill:#e6e8ec"
     inkscape:export-xdpi="36"
     inkscape:export-ydpi="36" />
  <circle
     cx="523.21002"
     cy="175.36"
     r="4.77"
     id="circle4161"
     style="fill:#e6e8ec"
     inkscape:export-xdpi="36"
     inkscape:export-ydpi="36" />
  <path
     d="m 742.3442,190.77668 c 0,0 -84.2,-5.08 -74.28,53.92 0,0 -2,10.43 7.48,15.16 0,0 0.15,-4.37 8.64,-2.88 a 39.5,39.5 0 0 0 9.15,0.44 19.06,19.06 0 0 0 11.18,-4.57 v 0 c 0,0 23.67,-9.78 32.87,-48.46 0,0 6.81,-8.44 6.54,-10.61 l -14.21,6.07 c 0,0 4.86,10.25 1,18.77 0,0 -0.46,-18.4 -3.19,-18 -0.55,0.08 -7.38,3.55 -7.38,3.55 0,0 8.35,17.85 2.05,30.83 0,0 2.39,-22 -4.66,-29.54 l -10,5.84 c 0,0 9.76,18.44 3.14,33.49 0,0 1.7,-23.08 -5.25,-32.07 l -9.06,7.07 c 0,0 9.17,18.17 3.58,30.65 0,0 -0.73,-26.86 -5.54,-28.89 0,0 -7.93,7 -9.14,9.86 0,0 6.28,13.2 2.38,20.16 0,0 -2.39,-17.9 -4.35,-18 0,0 -7.9,11.86 -8.72,20 0,0 0.34,-12.09 6.81,-21.12 0,0 -7.64,1.31 -12.1,6.26 0,0 1.23,-8.38 14.05,-9.12 0,0 6.53,-9 8.27,-9.54 0,0 -12.74,-1.07 -20.47,2.36 0,0 6.8,-7.91 22.81,-4.31 l 8.95,-7.31 c 0,0 -16.78,-2.29 -23.9,0.24 0,0 8.19,-7 26.31,-1.9 l 9.74,-5.82 c 0,0 -14.31,-3.08 -22.83,-2 0,0 9,-4.85 25.69,0.41 l 7,-3.13 c 0,0 -10.48,-2.06 -13.55,-2.39 -3.07,-0.33 -3.23,-1.17 -3.23,-1.17 a 36.35,36.35 0 0 1 19.69,2.19 c 0,0 14.78,-5.51 14.53,-6.44 z"
     id="path4163"
     inkscape:connector-curvature="0"
     style="fill:#66cc99;fill-opacity:1"
     inkscape:export-xdpi="36"
     inkscape:export-ydpi="36" />
  <path
     d="m 663.83,100.51 c 0,0 -38,-2.29 -33.56,24.37 0,0 -0.89,4.71 3.38,6.85 0,0 0.07,-2 3.91,-1.31 a 17.51,17.51 0 0 0 4.13,0.2 8.56,8.56 0 0 0 5.05,-2.08 v 0 c 0,0 10.7,-4.42 14.86,-21.9 0,0 3.07,-3.81 2.95,-4.79 l -6.42,2.74 c 0,0 2.19,4.63 0.47,8.48 0,0 -0.21,-8.31 -1.44,-8.12 -0.25,0 -3.34,1.61 -3.34,1.61 0,0 3.78,8.07 0.93,13.93 0,0 1.08,-9.94 -2.11,-13.35 l -4.52,2.68 c 0,0 4.41,8.33 1.42,15.13 0,0 0.77,-10.43 -2.37,-14.49 l -4.09,3.2 c 0,0 4.14,8.21 1.62,13.85 0,0 -0.34,-12.14 -2.51,-13.06 0,0 -3.58,3.16 -4.13,4.46 0,0 2.84,6 1.08,9.11 0,0 -1.08,-8.09 -2,-8.13 0,0 -3.57,5.36 -3.94,9 a 19.52,19.52 0 0 1 3.08,-9.54 10.76,10.76 0 0 0 -5.47,2.83 c 0,0 0.56,-3.79 6.35,-4.12 0,0 3,-4.07 3.74,-4.32 0,0 -5.76,-0.48 -9.25,1.07 0,0 3.07,-3.57 10.3,-1.95 l 4,-3.3 c 0,0 -7.59,-1 -10.8,0.11 0,0 3.7,-3.16 11.89,-0.86 l 4.4,-2.63 c 0,0 -6.47,-1.39 -10.32,-0.89 0,0 4.07,-2.19 11.61,0.18 l 3.15,-1.41 c 0,0 -4.74,-0.93 -6.13,-1.08 -1.39,-0.15 -1.46,-0.53 -1.46,-0.53 a 16.39,16.39 0 0 1 8.9,1 c 0,0 6.76,-2.52 6.64,-2.94 z"
     id="path4165"
     style="fill:#66cc99;fill-opacity:1"
     inkscape:connector-curvature="0"
     inkscape:export-xdpi="36"
     inkscape:export-ydpi="36" />
  <rect
     x="395.91003"
     y="204.10208"
     width="206.95"
     height="509.67905"
     id="rect4167"
     style="opacity:0.1;stroke-width:1.07720268"
     inkscape:export-xdpi="36"
     inkscape:export-ydpi="36" />
  <path
     d="m 556.1,655.4 c 0,0 -5.5,4.53 -5.35,8.27"
     id="path4265"
     inkscape:connector-curvature="0"
     style="opacity:0.1"
     inkscape:export-xdpi="36"
     inkscape:export-ydpi="36" />
  <path
     d="m 568.01,734.67 c 0,0 -0.84,8.84 -8.5,13.42"
     id="path4269"
     inkscape:connector-curvature="0"
     style="opacity:0.1"
     inkscape:export-xdpi="36"
     inkscape:export-ydpi="36" />
  <path
     d="m 594.04,785.3 c 0,0 -13.53,-0.79 -13,2.87"
     id="path4281"
     inkscape:connector-curvature="0"
     style="opacity:0.1"
     inkscape:export-xdpi="36"
     inkscape:export-ydpi="36" />
  <path
     style="fill:#9da3a5;fill-opacity:0;stroke-width:1.40690792"
     d="M 396.31653,445.57264 V 225.38241 l 103.05601,0.36086 103.05601,0.36086 0.35611,219.82936 0.35613,219.82937 h -6.85485 c -6.8282,0 -6.85825,-0.0205 -7.7269,-5.27591 -0.47963,-2.90174 -0.87903,-9.18034 -0.88754,-13.95243 -0.0201,-11.23744 -3.69873,-19.79556 -10.99197,-25.57191 l -5.65369,-4.47781 4.09437,-4.09436 c 2.2519,-2.2519 4.176,-5.251 4.27578,-6.66468 0.0997,-1.41366 0.32886,-4.46963 0.50909,-6.79103 0.70718,-9.10908 -2.25835,-58.27823 -4.12751,-68.43505 -4.30653,-23.40114 -11.09093,-29.02631 -45.621,-37.82576 l -6.1473,-1.56654 3.5246,-3.76956 c 5.18038,-5.54039 8.10914,-12.12833 9.05859,-20.37634 0.46284,-4.02085 2.01175,-8.82051 3.44201,-10.66591 1.43026,-1.8454 2.60049,-4.45595 2.60049,-5.8012 0,-4.99282 -5.53713,-24.39164 -7.30904,-25.60657 -1.00973,-0.69233 -5.37884,-0.92934 -9.70914,-0.52668 -7.18794,0.66837 -8.53506,0.31045 -15.47599,-4.11188 -10.65339,-6.78767 -11.89094,-6.58158 -19.89938,3.31402 -1.66395,2.05605 -4.03029,3.02525 -7.38627,3.02525 -6.61283,0 -10.56558,4.06159 -10.56558,10.8565 0,2.87588 -1.04389,7.96227 -2.31976,11.30309 -1.98294,5.19225 -2.061,6.93548 -0.53757,12.00575 0.98021,3.26235 2.00014,6.71224 2.26651,7.66645 0.26637,0.95421 1.45794,1.3613 2.64793,0.90466 1.44641,-0.55504 2.16362,-10e-4 2.16362,1.66859 0,1.37438 1.8981,5.86212 4.218,9.97277 l 4.21801,7.47389 -3.86628,0.92702 c -2.12645,0.50987 -5.70427,1.85424 -7.95071,2.98749 -2.24644,1.13323 -5.57491,2.22405 -7.39659,2.42403 -5.18095,0.56871 -18.43039,10.08443 -21.02355,15.09906 -6.27858,12.14142 -16.03356,47.34573 -16.03399,57.86431 -1.4e-4,3.22755 -0.90129,10.61658 -2.00256,16.42008 -2.11519,11.14666 -1.42719,19.3152 2.11053,25.05792 1.86229,3.02305 1.7078,3.46669 -2.20476,6.33108 -14.76074,10.80638 -17.59969,16.79032 -17.59969,37.09666 v 13.115 h -6.33108 -6.33109 z"
     id="path5123"
     inkscape:connector-curvature="0"
     inkscape:export-xdpi="36"
     inkscape:export-ydpi="36" />
  <path
     style="fill:#66cc99;fill-opacity:0;stroke-width:0.35172698"
     d="m 677.34439,256.04992 c -2.03311,-1.55071 -3.60153,-3.67769 -4.51785,-6.12675 -0.87604,-2.34143 -1.22192,-7.34099 -1.21184,-17.51674 0.006,-5.80606 0.0864,-6.62278 0.97254,-9.84836 3.67154,-13.36456 13.92576,-22.81913 30.88553,-28.47702 10.83608,-3.61499 23.19245,-5.47447 36.17774,-5.44433 l 6.15522,0.0143 -2.28623,1.1653 c -1.25742,0.64091 -4.3964,1.99944 -6.97551,3.01895 l -4.68928,1.85366 -3.04871,-0.91289 c -4.38181,-1.31208 -6.71292,-1.64779 -11.1151,-1.60073 -8.06847,0.0863 -7.58723,0.91255 1.4271,2.45035 3.45816,0.58994 6.80196,1.16183 7.43068,1.27085 0.62871,0.10902 1.14311,0.31076 1.14311,0.44829 0,0.13754 -1.3145,0.83579 -2.92112,1.55167 l -2.92112,1.30161 -3.4979,-0.89209 c -7.15957,-1.82593 -15.136,-1.95821 -20.02907,-0.33214 -2.63579,0.87593 -2.60358,1.12317 0.12094,0.92823 2.92281,-0.20913 10.31848,0.42894 15.70678,1.3551 2.12795,0.36577 4.02727,0.66627 4.22072,0.6678 0.19345,0.002 -1.78501,1.28735 -4.39658,2.85739 l -4.74832,2.85462 -2.46209,-0.56232 c -7.6942,-1.75731 -13.7188,-1.70238 -19.32199,0.17617 -2.19145,0.73471 -4.58208,2.01704 -4.2952,2.30392 0.0888,0.0888 0.76977,-0.0112 1.51334,-0.22214 2.31978,-0.65808 9.84582,-0.8439 15.5969,-0.38509 2.99848,0.23921 5.57202,0.50876 5.71898,0.599 0.14697,0.0902 -1.647,1.71673 -3.98658,3.61442 l -4.2538,3.45035 -1.46518,-0.36217 c -2.52396,-0.62389 -10.30117,-0.50702 -12.89631,0.19379 -2.9514,0.79702 -6.35519,2.51238 -7.62011,3.84021 l -0.9972,1.0468 1.4069,-0.54945 c 3.13824,-1.2256 6.07892,-1.67271 12.29554,-1.86943 l 6.31617,-0.19987 -1.94682,2.24759 c -1.07075,1.23617 -2.8514,3.39509 -3.957,4.7976 -1.75738,2.22935 -2.15381,2.55003 -3.15234,2.55003 -1.53861,0 -4.86564,0.89124 -6.56681,1.75912 -2.75321,1.40457 -5.97841,5.06876 -5.97841,6.79211 0,0.57058 0.21176,0.48421 1.36307,-0.55594 0.7497,-0.6773 2.05715,-1.63821 2.90545,-2.13534 1.67124,-0.97942 5.99454,-2.69441 6.79228,-2.69441 0.33578,0 -0.0491,1.03731 -1.20703,3.25347 -1.938,3.70903 -3.29313,7.76123 -4.05333,12.12053 -0.7464,4.28018 -0.63617,5.86251 0.17797,2.55463 0.35837,-1.45607 1.28568,-4.1094 2.0607,-5.89629 1.60996,-3.71196 5.64533,-10.97716 6.09713,-10.97716 0.69204,0 2.04917,5.16366 3.10161,11.80111 0.99453,6.27225 0.97087,6.20377 1.69459,4.90592 0.45708,-0.81968 0.58587,-1.95793 0.57703,-5.10004 -0.0121,-4.29014 -0.61969,-7.17361 -2.5045,-11.88489 l -0.89116,-2.22755 0.90178,-1.2973 c 0.49598,-0.71351 2.49053,-2.87842 4.43235,-4.8109 2.98534,-2.971 3.62517,-3.45477 4.14314,-3.13256 0.89567,0.55715 2.15798,3.96897 2.91687,7.88379 0.71687,3.69807 1.71481,12.83094 1.78218,16.31007 0.0229,1.18196 0.15294,2.62385 0.289,3.2042 0.23982,1.02287 0.26582,0.99595 0.84931,-0.87932 0.33105,-1.06397 0.76653,-3.10452 0.96772,-4.53456 0.69966,-4.97308 -0.89775,-13.96139 -3.71941,-20.92831 -0.69682,-1.72051 -1.22177,-3.24794 -1.16656,-3.3943 0.23241,-0.61611 8.40255,-6.68615 8.72838,-6.48478 0.64874,0.40094 2.35671,4.17117 3.11232,6.87023 1.2988,4.63938 1.87753,9.88386 1.92888,17.47984 0.0265,3.91713 0.0856,7.12224 0.13136,7.12247 0.23883,0.001 1.14022,-2.66815 1.67418,-4.95788 0.87192,-3.73893 0.81005,-10.36699 -0.13969,-14.96625 -0.7587,-3.67407 -2.75013,-9.82098 -3.93274,-12.13907 l -0.66954,-1.31242 3.25092,-1.9002 c 7.36012,-4.30206 6.62389,-3.97349 7.19573,-3.21134 3.02326,4.02941 4.54464,12.19038 4.2538,22.81818 -0.0871,3.18142 -0.0522,5.71882 0.0775,5.63867 0.12968,-0.0802 0.61563,-1.29856 1.07988,-2.70756 0.76313,-2.31614 0.84324,-3.15218 0.83525,-8.71706 -0.008,-5.5065 -0.10913,-6.55371 -0.96043,-9.93615 -0.52338,-2.07951 -1.41036,-4.96241 -1.97108,-6.40643 l -1.01948,-2.62549 0.74887,-0.48972 c 0.98391,-0.64342 6.2085,-3.05274 6.61985,-3.05274 1.0048,0 2.16628,5.96587 2.59782,13.3436 0.26698,4.5645 0.54902,4.91771 1.39342,1.74504 0.96851,-3.63902 0.44178,-9.95975 -1.1955,-14.34591 l -0.60548,-1.62205 6.81856,-2.92679 c 3.7502,-1.60974 6.8807,-2.86465 6.95667,-2.78869 0.28762,0.28763 -1.78531,3.81956 -3.99811,6.81211 -2.13118,2.88216 -2.40136,3.46007 -3.67732,7.86572 -4.38503,15.14065 -11.17768,26.99561 -20.55053,35.86606 -3.15414,2.98507 -4.8091,4.19191 -12.44192,9.073 -5.14077,3.28745 -9.90902,4.12047 -17.92406,3.13135 -4.6354,-0.57204 -6.67269,-0.42558 -8.22456,0.59125 -0.47685,0.31244 -0.9688,0.88884 -1.09323,1.28089 -0.30401,0.95785 -0.57267,0.90728 -2.33964,-0.44043 z"
     id="path5125"
     inkscape:connector-curvature="0"
     inkscape:export-xdpi="36"
     inkscape:export-ydpi="36" />
  <path
     style="fill:#66cc99;fill-opacity:0;stroke-width:0.35172698"
     d="m 677.34439,256.04992 c -2.03311,-1.55071 -3.60153,-3.67769 -4.51785,-6.12675 -0.87604,-2.34143 -1.22192,-7.34099 -1.21184,-17.51674 0.006,-5.80606 0.0864,-6.62278 0.97254,-9.84836 3.67154,-13.36456 13.92576,-22.81913 30.88553,-28.47702 10.83608,-3.61499 23.19245,-5.47447 36.17774,-5.44433 l 6.15522,0.0143 -2.28623,1.1653 c -1.25742,0.64091 -4.3964,1.99944 -6.97551,3.01895 l -4.68928,1.85366 -3.04871,-0.91289 c -4.38181,-1.31208 -6.71292,-1.64779 -11.1151,-1.60073 -8.06847,0.0863 -7.58723,0.91255 1.4271,2.45035 3.45816,0.58994 6.80196,1.16183 7.43068,1.27085 0.62871,0.10902 1.14311,0.31076 1.14311,0.44829 0,0.13754 -1.3145,0.83579 -2.92112,1.55167 l -2.92112,1.30161 -3.4979,-0.89209 c -7.15957,-1.82593 -15.136,-1.95821 -20.02907,-0.33214 -2.63579,0.87593 -2.60358,1.12317 0.12094,0.92823 2.92281,-0.20913 10.31848,0.42894 15.70678,1.3551 2.12795,0.36577 4.02727,0.66627 4.22072,0.6678 0.19345,0.002 -1.78501,1.28735 -4.39658,2.85739 l -4.74832,2.85462 -2.46209,-0.56232 c -7.6942,-1.75731 -13.7188,-1.70238 -19.32199,0.17617 -2.19145,0.73471 -4.58208,2.01704 -4.2952,2.30392 0.0888,0.0888 0.76977,-0.0112 1.51334,-0.22214 2.31978,-0.65808 9.84582,-0.8439 15.5969,-0.38509 2.99848,0.23921 5.57202,0.50876 5.71898,0.599 0.14697,0.0902 -1.647,1.71673 -3.98658,3.61442 l -4.2538,3.45035 -1.46518,-0.36217 c -2.52396,-0.62389 -10.30117,-0.50702 -12.89631,0.19379 -2.9514,0.79702 -6.35519,2.51238 -7.62011,3.84021 l -0.9972,1.0468 1.4069,-0.54945 c 3.13824,-1.2256 6.07892,-1.67271 12.29554,-1.86943 l 6.31617,-0.19987 -1.94682,2.24759 c -1.07075,1.23617 -2.8514,3.39509 -3.957,4.7976 -1.75738,2.22935 -2.15381,2.55003 -3.15234,2.55003 -1.53861,0 -4.86564,0.89124 -6.56681,1.75912 -2.75321,1.40457 -5.97841,5.06876 -5.97841,6.79211 0,0.57058 0.21176,0.48421 1.36307,-0.55594 0.7497,-0.6773 2.05715,-1.63821 2.90545,-2.13534 1.67124,-0.97942 5.99454,-2.69441 6.79228,-2.69441 0.33578,0 -0.0491,1.03731 -1.20703,3.25347 -1.938,3.70903 -3.29313,7.76123 -4.05333,12.12053 -0.7464,4.28018 -0.63617,5.86251 0.17797,2.55463 0.35837,-1.45607 1.28568,-4.1094 2.0607,-5.89629 1.60996,-3.71196 5.64533,-10.97716 6.09713,-10.97716 0.69204,0 2.04917,5.16366 3.10161,11.80111 0.99453,6.27225 0.97087,6.20377 1.69459,4.90592 0.45708,-0.81968 0.58587,-1.95793 0.57703,-5.10004 -0.0121,-4.29014 -0.61969,-7.17361 -2.5045,-11.88489 l -0.89116,-2.22755 0.90178,-1.2973 c 0.49598,-0.71351 2.49053,-2.87842 4.43235,-4.8109 2.98534,-2.971 3.62517,-3.45477 4.14314,-3.13256 0.89567,0.55715 2.15798,3.96897 2.91687,7.88379 0.71687,3.69807 1.71481,12.83094 1.78218,16.31007 0.0229,1.18196 0.15294,2.62385 0.289,3.2042 0.23982,1.02287 0.26582,0.99595 0.84931,-0.87932 0.33105,-1.06397 0.76653,-3.10452 0.96772,-4.53456 0.69966,-4.97308 -0.89775,-13.96139 -3.71941,-20.92831 -0.69682,-1.72051 -1.22177,-3.24794 -1.16656,-3.3943 0.23241,-0.61611 8.40255,-6.68615 8.72838,-6.48478 0.64874,0.40094 2.35671,4.17117 3.11232,6.87023 1.2988,4.63938 1.87753,9.88386 1.92888,17.47984 0.0265,3.91713 0.0856,7.12224 0.13136,7.12247 0.23883,0.001 1.14022,-2.66815 1.67418,-4.95788 0.87192,-3.73893 0.81005,-10.36699 -0.13969,-14.96625 -0.7587,-3.67407 -2.75013,-9.82098 -3.93274,-12.13907 l -0.66954,-1.31242 3.25092,-1.9002 c 7.36012,-4.30206 6.62389,-3.97349 7.19573,-3.21134 3.02326,4.02941 4.54464,12.19038 4.2538,22.81818 -0.0871,3.18142 -0.0522,5.71882 0.0775,5.63867 0.12968,-0.0802 0.61563,-1.29856 1.07988,-2.70756 0.76313,-2.31614 0.84324,-3.15218 0.83525,-8.71706 -0.008,-5.5065 -0.10913,-6.55371 -0.96043,-9.93615 -0.52338,-2.07951 -1.41036,-4.96241 -1.97108,-6.40643 l -1.01948,-2.62549 0.74887,-0.48972 c 0.98391,-0.64342 6.2085,-3.05274 6.61985,-3.05274 1.0048,0 2.16628,5.96587 2.59782,13.3436 0.26698,4.5645 0.54902,4.91771 1.39342,1.74504 0.96851,-3.63902 0.44178,-9.95975 -1.1955,-14.34591 l -0.60548,-1.62205 6.81856,-2.92679 c 3.7502,-1.60974 6.8807,-2.86465 6.95667,-2.78869 0.28762,0.28763 -1.78531,3.81956 -3.99811,6.81211 -2.13118,2.88216 -2.40136,3.46007 -3.67732,7.86572 -4.38503,15.14065 -11.17768,26.99561 -20.55053,35.86606 -3.15414,2.98507 -4.8091,4.19191 -12.44192,9.073 -5.14077,3.28745 -9.90902,4.12047 -17.92406,3.13135 -4.6354,-0.57204 -6.67269,-0.42558 -8.22456,0.59125 -0.47685,0.31244 -0.9688,0.88884 -1.09323,1.28089 -0.30401,0.95785 -0.57267,0.90728 -2.33964,-0.44043 z"
     id="path5127"
     inkscape:connector-curvature="0"
     inkscape:export-xdpi="36"
     inkscape:export-ydpi="36" />
  <path
     style="fill:#66cc99;fill-opacity:0;stroke-width:0.35172698"
     d="m 677.34439,256.04992 c -2.03311,-1.55071 -3.60153,-3.67769 -4.51785,-6.12675 -0.87604,-2.34143 -1.22192,-7.34099 -1.21184,-17.51674 0.006,-5.80606 0.0864,-6.62278 0.97254,-9.84836 3.67154,-13.36456 13.92576,-22.81913 30.88553,-28.47702 10.83608,-3.61499 23.19245,-5.47447 36.17774,-5.44433 l 6.15522,0.0143 -2.28623,1.1653 c -1.25742,0.64091 -4.3964,1.99944 -6.97551,3.01895 l -4.68928,1.85366 -3.04871,-0.91289 c -4.38181,-1.31208 -6.71292,-1.64779 -11.1151,-1.60073 -8.06847,0.0863 -7.58723,0.91255 1.4271,2.45035 3.45816,0.58994 6.80196,1.16183 7.43068,1.27085 0.62871,0.10902 1.14311,0.31076 1.14311,0.44829 0,0.13754 -1.3145,0.83579 -2.92112,1.55167 l -2.92112,1.30161 -3.4979,-0.89209 c -7.15957,-1.82593 -15.136,-1.95821 -20.02907,-0.33214 -2.63579,0.87593 -2.60358,1.12317 0.12094,0.92823 2.92281,-0.20913 10.31848,0.42894 15.70678,1.3551 2.12795,0.36577 4.02727,0.66627 4.22072,0.6678 0.19345,0.002 -1.78501,1.28735 -4.39658,2.85739 l -4.74832,2.85462 -2.46209,-0.56232 c -7.6942,-1.75731 -13.7188,-1.70238 -19.32199,0.17617 -2.19145,0.73471 -4.58208,2.01704 -4.2952,2.30392 0.0888,0.0888 0.76977,-0.0112 1.51334,-0.22214 2.31978,-0.65808 9.84582,-0.8439 15.5969,-0.38509 2.99848,0.23921 5.57202,0.50876 5.71898,0.599 0.14697,0.0902 -1.647,1.71673 -3.98658,3.61442 l -4.2538,3.45035 -1.46518,-0.36217 c -2.52396,-0.62389 -10.30117,-0.50702 -12.89631,0.19379 -2.9514,0.79702 -6.35519,2.51238 -7.62011,3.84021 l -0.9972,1.0468 1.4069,-0.54945 c 3.13824,-1.2256 6.07892,-1.67271 12.29554,-1.86943 l 6.31617,-0.19987 -1.94682,2.24759 c -1.07075,1.23617 -2.8514,3.39509 -3.957,4.7976 -1.75738,2.22935 -2.15381,2.55003 -3.15234,2.55003 -1.53861,0 -4.86564,0.89124 -6.56681,1.75912 -2.75321,1.40457 -5.97841,5.06876 -5.97841,6.79211 0,0.57058 0.21176,0.48421 1.36307,-0.55594 0.7497,-0.6773 2.05715,-1.63821 2.90545,-2.13534 1.67124,-0.97942 5.99454,-2.69441 6.79228,-2.69441 0.33578,0 -0.0491,1.03731 -1.20703,3.25347 -1.938,3.70903 -3.29313,7.76123 -4.05333,12.12053 -0.7464,4.28018 -0.63617,5.86251 0.17797,2.55463 0.35837,-1.45607 1.28568,-4.1094 2.0607,-5.89629 1.60996,-3.71196 5.64533,-10.97716 6.09713,-10.97716 0.69204,0 2.04917,5.16366 3.10161,11.80111 0.99453,6.27225 0.97087,6.20377 1.69459,4.90592 0.45708,-0.81968 0.58587,-1.95793 0.57703,-5.10004 -0.0121,-4.29014 -0.61969,-7.17361 -2.5045,-11.88489 l -0.89116,-2.22755 0.90178,-1.2973 c 0.49598,-0.71351 2.49053,-2.87842 4.43235,-4.8109 2.98534,-2.971 3.62517,-3.45477 4.14314,-3.13256 0.89567,0.55715 2.15798,3.96897 2.91687,7.88379 0.71687,3.69807 1.71481,12.83094 1.78218,16.31007 0.0229,1.18196 0.15294,2.62385 0.289,3.2042 0.23982,1.02287 0.26582,0.99595 0.84931,-0.87932 0.33105,-1.06397 0.76653,-3.10452 0.96772,-4.53456 0.69966,-4.97308 -0.89775,-13.96139 -3.71941,-20.92831 -0.69682,-1.72051 -1.22177,-3.24794 -1.16656,-3.3943 0.23241,-0.61611 8.40255,-6.68615 8.72838,-6.48478 0.64874,0.40094 2.35671,4.17117 3.11232,6.87023 1.2988,4.63938 1.87753,9.88386 1.92888,17.47984 0.0265,3.91713 0.0856,7.12224 0.13136,7.12247 0.23883,0.001 1.14022,-2.66815 1.67418,-4.95788 0.87192,-3.73893 0.81005,-10.36699 -0.13969,-14.96625 -0.7587,-3.67407 -2.75013,-9.82098 -3.93274,-12.13907 l -0.66954,-1.31242 3.25092,-1.9002 c 7.36012,-4.30206 6.62389,-3.97349 7.19573,-3.21134 3.02326,4.02941 4.54464,12.19038 4.2538,22.81818 -0.0871,3.18142 -0.0522,5.71882 0.0775,5.63867 0.12968,-0.0802 0.61563,-1.29856 1.07988,-2.70756 0.76313,-2.31614 0.84324,-3.15218 0.83525,-8.71706 -0.008,-5.5065 -0.10913,-6.55371 -0.96043,-9.93615 -0.52338,-2.07951 -1.41036,-4.96241 -1.97108,-6.40643 l -1.01948,-2.62549 0.74887,-0.48972 c 0.98391,-0.64342 6.2085,-3.05274 6.61985,-3.05274 1.0048,0 2.16628,5.96587 2.59782,13.3436 0.26698,4.5645 0.54902,4.91771 1.39342,1.74504 0.96851,-3.63902 0.44178,-9.95975 -1.1955,-14.34591 l -0.60548,-1.62205 6.81856,-2.92679 c 3.7502,-1.60974 6.8807,-2.86465 6.95667,-2.78869 0.28762,0.28763 -1.78531,3.81956 -3.99811,6.81211 -2.13118,2.88216 -2.40136,3.46007 -3.67732,7.86572 -4.38503,15.14065 -11.17768,26.99561 -20.55053,35.86606 -3.15414,2.98507 -4.8091,4.19191 -12.44192,9.073 -5.14077,3.28745 -9.90902,4.12047 -17.92406,3.13135 -4.6354,-0.57204 -6.67269,-0.42558 -8.22456,0.59125 -0.47685,0.31244 -0.9688,0.88884 -1.09323,1.28089 -0.30401,0.95785 -0.57267,0.90728 -2.33964,-0.44043 z"
     id="path5129"
     inkscape:connector-curvature="0"
     inkscape:export-xdpi="36"
     inkscape:export-ydpi="36" />
  <path
     style="fill:#66cc99;fill-opacity:0;stroke-width:0.35172698"
     d="m 677.34439,256.04992 c -2.03311,-1.55071 -3.60153,-3.67769 -4.51785,-6.12675 -0.87604,-2.34143 -1.22192,-7.34099 -1.21184,-17.51674 0.006,-5.80606 0.0864,-6.62278 0.97254,-9.84836 3.67154,-13.36456 13.92576,-22.81913 30.88553,-28.47702 10.83608,-3.61499 23.19245,-5.47447 36.17774,-5.44433 l 6.15522,0.0143 -2.28623,1.1653 c -1.25742,0.64091 -4.3964,1.99944 -6.97551,3.01895 l -4.68928,1.85366 -3.04871,-0.91289 c -4.38181,-1.31208 -6.71292,-1.64779 -11.1151,-1.60073 -8.06847,0.0863 -7.58723,0.91255 1.4271,2.45035 3.45816,0.58994 6.80196,1.16183 7.43068,1.27085 0.62871,0.10902 1.14311,0.31076 1.14311,0.44829 0,0.13754 -1.3145,0.83579 -2.92112,1.55167 l -2.92112,1.30161 -3.4979,-0.89209 c -7.15957,-1.82593 -15.136,-1.95821 -20.02907,-0.33214 -2.63579,0.87593 -2.60358,1.12317 0.12094,0.92823 2.92281,-0.20913 10.31848,0.42894 15.70678,1.3551 2.12795,0.36577 4.02727,0.66627 4.22072,0.6678 0.19345,0.002 -1.78501,1.28735 -4.39658,2.85739 l -4.74832,2.85462 -2.46209,-0.56232 c -7.6942,-1.75731 -13.7188,-1.70238 -19.32199,0.17617 -2.19145,0.73471 -4.58208,2.01704 -4.2952,2.30392 0.0888,0.0888 0.76977,-0.0112 1.51334,-0.22214 2.31978,-0.65808 9.84582,-0.8439 15.5969,-0.38509 2.99848,0.23921 5.57202,0.50876 5.71898,0.599 0.14697,0.0902 -1.647,1.71673 -3.98658,3.61442 l -4.2538,3.45035 -1.46518,-0.36217 c -2.52396,-0.62389 -10.30117,-0.50702 -12.89631,0.19379 -2.9514,0.79702 -6.35519,2.51238 -7.62011,3.84021 l -0.9972,1.0468 1.4069,-0.54945 c 3.13824,-1.2256 6.07892,-1.67271 12.29554,-1.86943 l 6.31617,-0.19987 -1.94682,2.24759 c -1.07075,1.23617 -2.8514,3.39509 -3.957,4.7976 -1.75738,2.22935 -2.15381,2.55003 -3.15234,2.55003 -1.53861,0 -4.86564,0.89124 -6.56681,1.75912 -2.75321,1.40457 -5.97841,5.06876 -5.97841,6.79211 0,0.57058 0.21176,0.48421 1.36307,-0.55594 0.7497,-0.6773 2.05715,-1.63821 2.90545,-2.13534 1.67124,-0.97942 5.99454,-2.69441 6.79228,-2.69441 0.33578,0 -0.0491,1.03731 -1.20703,3.25347 -1.938,3.70903 -3.29313,7.76123 -4.05333,12.12053 -0.7464,4.28018 -0.63617,5.86251 0.17797,2.55463 0.35837,-1.45607 1.28568,-4.1094 2.0607,-5.89629 1.60996,-3.71196 5.64533,-10.97716 6.09713,-10.97716 0.69204,0 2.04917,5.16366 3.10161,11.80111 0.99453,6.27225 0.97087,6.20377 1.69459,4.90592 0.45708,-0.81968 0.58587,-1.95793 0.57703,-5.10004 -0.0121,-4.29014 -0.61969,-7.17361 -2.5045,-11.88489 l -0.89116,-2.22755 0.90178,-1.2973 c 0.49598,-0.71351 2.49053,-2.87842 4.43235,-4.8109 2.98534,-2.971 3.62517,-3.45477 4.14314,-3.13256 0.89567,0.55715 2.15798,3.96897 2.91687,7.88379 0.71687,3.69807 1.71481,12.83094 1.78218,16.31007 0.0229,1.18196 0.15294,2.62385 0.289,3.2042 0.23982,1.02287 0.26582,0.99595 0.84931,-0.87932 0.33105,-1.06397 0.76653,-3.10452 0.96772,-4.53456 0.69966,-4.97308 -0.89775,-13.96139 -3.71941,-20.92831 -0.69682,-1.72051 -1.22177,-3.24794 -1.16656,-3.3943 0.23241,-0.61611 8.40255,-6.68615 8.72838,-6.48478 0.64874,0.40094 2.35671,4.17117 3.11232,6.87023 1.2988,4.63938 1.87753,9.88386 1.92888,17.47984 0.0265,3.91713 0.0856,7.12224 0.13136,7.12247 0.23883,0.001 1.14022,-2.66815 1.67418,-4.95788 0.87192,-3.73893 0.81005,-10.36699 -0.13969,-14.96625 -0.7587,-3.67407 -2.75013,-9.82098 -3.93274,-12.13907 l -0.66954,-1.31242 3.25092,-1.9002 c 7.36012,-4.30206 6.62389,-3.97349 7.19573,-3.21134 3.02326,4.02941 4.54464,12.19038 4.2538,22.81818 -0.0871,3.18142 -0.0522,5.71882 0.0775,5.63867 0.12968,-0.0802 0.61563,-1.29856 1.07988,-2.70756 0.76313,-2.31614 0.84324,-3.15218 0.83525,-8.71706 -0.008,-5.5065 -0.10913,-6.55371 -0.96043,-9.93615 -0.52338,-2.07951 -1.41036,-4.96241 -1.97108,-6.40643 l -1.01948,-2.62549 0.74887,-0.48972 c 0.98391,-0.64342 6.2085,-3.05274 6.61985,-3.05274 1.0048,0 2.16628,5.96587 2.59782,13.3436 0.26698,4.5645 0.54902,4.91771 1.39342,1.74504 0.96851,-3.63902 0.44178,-9.95975 -1.1955,-14.34591 l -0.60548,-1.62205 6.81856,-2.92679 c 3.7502,-1.60974 6.8807,-2.86465 6.95667,-2.78869 0.28762,0.28763 -1.78531,3.81956 -3.99811,6.81211 -2.13118,2.88216 -2.40136,3.46007 -3.67732,7.86572 -4.38503,15.14065 -11.17768,26.99561 -20.55053,35.86606 -3.15414,2.98507 -4.8091,4.19191 -12.44192,9.073 -5.14077,3.28745 -9.90902,4.12047 -17.92406,3.13135 -4.6354,-0.57204 -6.67269,-0.42558 -8.22456,0.59125 -0.47685,0.31244 -0.9688,0.88884 -1.09323,1.28089 -0.30401,0.95785 -0.57267,0.90728 -2.33964,-0.44043 z"
     id="path5131"
     inkscape:connector-curvature="0"
     inkscape:export-xdpi="36"
     inkscape:export-ydpi="36" />
  <path
     style="fill:#66cc99;fill-opacity:0;stroke-width:0.35172698"
     d="m 677.34439,256.04992 c -2.03311,-1.55071 -3.60153,-3.67769 -4.51785,-6.12675 -0.87604,-2.34143 -1.22192,-7.34099 -1.21184,-17.51674 0.006,-5.80606 0.0864,-6.62278 0.97254,-9.84836 3.67154,-13.36456 13.92576,-22.81913 30.88553,-28.47702 10.83608,-3.61499 23.19245,-5.47447 36.17774,-5.44433 l 6.15522,0.0143 -2.28623,1.1653 c -1.25742,0.64091 -4.3964,1.99944 -6.97551,3.01895 l -4.68928,1.85366 -3.04871,-0.91289 c -4.38181,-1.31208 -6.71292,-1.64779 -11.1151,-1.60073 -8.06847,0.0863 -7.58723,0.91255 1.4271,2.45035 3.45816,0.58994 6.80196,1.16183 7.43068,1.27085 0.62871,0.10902 1.14311,0.31076 1.14311,0.44829 0,0.13754 -1.3145,0.83579 -2.92112,1.55167 l -2.92112,1.30161 -3.4979,-0.89209 c -7.15957,-1.82593 -15.136,-1.95821 -20.02907,-0.33214 -2.63579,0.87593 -2.60358,1.12317 0.12094,0.92823 2.92281,-0.20913 10.31848,0.42894 15.70678,1.3551 2.12795,0.36577 4.02727,0.66627 4.22072,0.6678 0.19345,0.002 -1.78501,1.28735 -4.39658,2.85739 l -4.74832,2.85462 -2.46209,-0.56232 c -7.6942,-1.75731 -13.7188,-1.70238 -19.32199,0.17617 -2.19145,0.73471 -4.58208,2.01704 -4.2952,2.30392 0.0888,0.0888 0.76977,-0.0112 1.51334,-0.22214 2.31978,-0.65808 9.84582,-0.8439 15.5969,-0.38509 2.99848,0.23921 5.57202,0.50876 5.71898,0.599 0.14697,0.0902 -1.647,1.71673 -3.98658,3.61442 l -4.2538,3.45035 -1.46518,-0.36217 c -2.52396,-0.62389 -10.30117,-0.50702 -12.89631,0.19379 -2.9514,0.79702 -6.35519,2.51238 -7.62011,3.84021 l -0.9972,1.0468 1.4069,-0.54945 c 3.13824,-1.2256 6.07892,-1.67271 12.29554,-1.86943 l 6.31617,-0.19987 -1.94682,2.24759 c -1.07075,1.23617 -2.8514,3.39509 -3.957,4.7976 -1.75738,2.22935 -2.15381,2.55003 -3.15234,2.55003 -1.53861,0 -4.86564,0.89124 -6.56681,1.75912 -2.75321,1.40457 -5.97841,5.06876 -5.97841,6.79211 0,0.57058 0.21176,0.48421 1.36307,-0.55594 0.7497,-0.6773 2.05715,-1.63821 2.90545,-2.13534 1.67124,-0.97942 5.99454,-2.69441 6.79228,-2.69441 0.33578,0 -0.0491,1.03731 -1.20703,3.25347 -1.938,3.70903 -3.29313,7.76123 -4.05333,12.12053 -0.7464,4.28018 -0.63617,5.86251 0.17797,2.55463 0.35837,-1.45607 1.28568,-4.1094 2.0607,-5.89629 1.60996,-3.71196 5.64533,-10.97716 6.09713,-10.97716 0.69204,0 2.04917,5.16366 3.10161,11.80111 0.99453,6.27225 0.97087,6.20377 1.69459,4.90592 0.45708,-0.81968 0.58587,-1.95793 0.57703,-5.10004 -0.0121,-4.29014 -0.61969,-7.17361 -2.5045,-11.88489 l -0.89116,-2.22755 0.90178,-1.2973 c 0.49598,-0.71351 2.49053,-2.87842 4.43235,-4.8109 2.98534,-2.971 3.62517,-3.45477 4.14314,-3.13256 0.89567,0.55715 2.15798,3.96897 2.91687,7.88379 0.71687,3.69807 1.71481,12.83094 1.78218,16.31007 0.0229,1.18196 0.15294,2.62385 0.289,3.2042 0.23982,1.02287 0.26582,0.99595 0.84931,-0.87932 0.33105,-1.06397 0.76653,-3.10452 0.96772,-4.53456 0.69966,-4.97308 -0.89775,-13.96139 -3.71941,-20.92831 -0.69682,-1.72051 -1.22177,-3.24794 -1.16656,-3.3943 0.23241,-0.61611 8.40255,-6.68615 8.72838,-6.48478 0.64874,0.40094 2.35671,4.17117 3.11232,6.87023 1.2988,4.63938 1.87753,9.88386 1.92888,17.47984 0.0265,3.91713 0.0856,7.12224 0.13136,7.12247 0.23883,0.001 1.14022,-2.66815 1.67418,-4.95788 0.87192,-3.73893 0.81005,-10.36699 -0.13969,-14.96625 -0.7587,-3.67407 -2.75013,-9.82098 -3.93274,-12.13907 l -0.66954,-1.31242 3.25092,-1.9002 c 7.36012,-4.30206 6.62389,-3.97349 7.19573,-3.21134 3.02326,4.02941 4.54464,12.19038 4.2538,22.81818 -0.0871,3.18142 -0.0522,5.71882 0.0775,5.63867 0.12968,-0.0802 0.61563,-1.29856 1.07988,-2.70756 0.76313,-2.31614 0.84324,-3.15218 0.83525,-8.71706 -0.008,-5.5065 -0.10913,-6.55371 -0.96043,-9.93615 -0.52338,-2.07951 -1.41036,-4.96241 -1.97108,-6.40643 l -1.01948,-2.62549 0.74887,-0.48972 c 0.98391,-0.64342 6.2085,-3.05274 6.61985,-3.05274 1.0048,0 2.16628,5.96587 2.59782,13.3436 0.26698,4.5645 0.54902,4.91771 1.39342,1.74504 0.96851,-3.63902 0.44178,-9.95975 -1.1955,-14.34591 l -0.60548,-1.62205 6.81856,-2.92679 c 3.7502,-1.60974 6.8807,-2.86465 6.95667,-2.78869 0.28762,0.28763 -1.78531,3.81956 -3.99811,6.81211 -2.13118,2.88216 -2.40136,3.46007 -3.67732,7.86572 -4.38503,15.14065 -11.17768,26.99561 -20.55053,35.86606 -3.15414,2.98507 -4.8091,4.19191 -12.44192,9.073 -5.14077,3.28745 -9.90902,4.12047 -17.92406,3.13135 -4.6354,-0.57204 -6.67269,-0.42558 -8.22456,0.59125 -0.47685,0.31244 -0.9688,0.88884 -1.09323,1.28089 -0.30401,0.95785 -0.57267,0.90728 -2.33964,-0.44043 z"
     id="path5133"
     inkscape:connector-curvature="0"
     inkscape:export-xdpi="36"
     inkscape:export-ydpi="36" />
  <path
     style="fill:#66cc99;fill-opacity:0;stroke-width:0.35172698"
     d="m 677.34439,256.04992 c -2.03311,-1.55071 -3.60153,-3.67769 -4.51785,-6.12675 -0.87604,-2.34143 -1.22192,-7.34099 -1.21184,-17.51674 0.006,-5.80606 0.0864,-6.62278 0.97254,-9.84836 3.67154,-13.36456 13.92576,-22.81913 30.88553,-28.47702 10.83608,-3.61499 23.19245,-5.47447 36.17774,-5.44433 l 6.15522,0.0143 -2.28623,1.1653 c -1.25742,0.64091 -4.3964,1.99944 -6.97551,3.01895 l -4.68928,1.85366 -3.04871,-0.91289 c -4.38181,-1.31208 -6.71292,-1.64779 -11.1151,-1.60073 -8.06847,0.0863 -7.58723,0.91255 1.4271,2.45035 3.45816,0.58994 6.80196,1.16183 7.43068,1.27085 0.62871,0.10902 1.14311,0.31076 1.14311,0.44829 0,0.13754 -1.3145,0.83579 -2.92112,1.55167 l -2.92112,1.30161 -3.4979,-0.89209 c -7.15957,-1.82593 -15.136,-1.95821 -20.02907,-0.33214 -2.63579,0.87593 -2.60358,1.12317 0.12094,0.92823 2.92281,-0.20913 10.31848,0.42894 15.70678,1.3551 2.12795,0.36577 4.02727,0.66627 4.22072,0.6678 0.19345,0.002 -1.78501,1.28735 -4.39658,2.85739 l -4.74832,2.85462 -2.46209,-0.56232 c -7.6942,-1.75731 -13.7188,-1.70238 -19.32199,0.17617 -2.19145,0.73471 -4.58208,2.01704 -4.2952,2.30392 0.0888,0.0888 0.76977,-0.0112 1.51334,-0.22214 2.31978,-0.65808 9.84582,-0.8439 15.5969,-0.38509 2.99848,0.23921 5.57202,0.50876 5.71898,0.599 0.14697,0.0902 -1.647,1.71673 -3.98658,3.61442 l -4.2538,3.45035 -1.46518,-0.36217 c -2.52396,-0.62389 -10.30117,-0.50702 -12.89631,0.19379 -2.9514,0.79702 -6.35519,2.51238 -7.62011,3.84021 l -0.9972,1.0468 1.4069,-0.54945 c 3.13824,-1.2256 6.07892,-1.67271 12.29554,-1.86943 l 6.31617,-0.19987 -1.94682,2.24759 c -1.07075,1.23617 -2.8514,3.39509 -3.957,4.7976 -1.75738,2.22935 -2.15381,2.55003 -3.15234,2.55003 -1.53861,0 -4.86564,0.89124 -6.56681,1.75912 -2.75321,1.40457 -5.97841,5.06876 -5.97841,6.79211 0,0.57058 0.21176,0.48421 1.36307,-0.55594 0.7497,-0.6773 2.05715,-1.63821 2.90545,-2.13534 1.67124,-0.97942 5.99454,-2.69441 6.79228,-2.69441 0.33578,0 -0.0491,1.03731 -1.20703,3.25347 -1.938,3.70903 -3.29313,7.76123 -4.05333,12.12053 -0.7464,4.28018 -0.63617,5.86251 0.17797,2.55463 0.35837,-1.45607 1.28568,-4.1094 2.0607,-5.89629 1.60996,-3.71196 5.64533,-10.97716 6.09713,-10.97716 0.69204,0 2.04917,5.16366 3.10161,11.80111 0.99453,6.27225 0.97087,6.20377 1.69459,4.90592 0.45708,-0.81968 0.58587,-1.95793 0.57703,-5.10004 -0.0121,-4.29014 -0.61969,-7.17361 -2.5045,-11.88489 l -0.89116,-2.22755 0.90178,-1.2973 c 0.49598,-0.71351 2.49053,-2.87842 4.43235,-4.8109 2.98534,-2.971 3.62517,-3.45477 4.14314,-3.13256 0.89567,0.55715 2.15798,3.96897 2.91687,7.88379 0.71687,3.69807 1.71481,12.83094 1.78218,16.31007 0.0229,1.18196 0.15294,2.62385 0.289,3.2042 0.23982,1.02287 0.26582,0.99595 0.84931,-0.87932 0.33105,-1.06397 0.76653,-3.10452 0.96772,-4.53456 0.69966,-4.97308 -0.89775,-13.96139 -3.71941,-20.92831 -0.69682,-1.72051 -1.22177,-3.24794 -1.16656,-3.3943 0.23241,-0.61611 8.40255,-6.68615 8.72838,-6.48478 0.64874,0.40094 2.35671,4.17117 3.11232,6.87023 1.2988,4.63938 1.87753,9.88386 1.92888,17.47984 0.0265,3.91713 0.0856,7.12224 0.13136,7.12247 0.23883,0.001 1.14022,-2.66815 1.67418,-4.95788 0.87192,-3.73893 0.81005,-10.36699 -0.13969,-14.96625 -0.7587,-3.67407 -2.75013,-9.82098 -3.93274,-12.13907 l -0.66954,-1.31242 3.25092,-1.9002 c 7.36012,-4.30206 6.62389,-3.97349 7.19573,-3.21134 3.02326,4.02941 4.54464,12.19038 4.2538,22.81818 -0.0871,3.18142 -0.0522,5.71882 0.0775,5.63867 0.12968,-0.0802 0.61563,-1.29856 1.07988,-2.70756 0.76313,-2.31614 0.84324,-3.15218 0.83525,-8.71706 -0.008,-5.5065 -0.10913,-6.55371 -0.96043,-9.93615 -0.52338,-2.07951 -1.41036,-4.96241 -1.97108,-6.40643 l -1.01948,-2.62549 0.74887,-0.48972 c 0.98391,-0.64342 6.2085,-3.05274 6.61985,-3.05274 1.0048,0 2.16628,5.96587 2.59782,13.3436 0.26698,4.5645 0.54902,4.91771 1.39342,1.74504 0.96851,-3.63902 0.44178,-9.95975 -1.1955,-14.34591 l -0.60548,-1.62205 6.81856,-2.92679 c 3.7502,-1.60974 6.8807,-2.86465 6.95667,-2.78869 0.28762,0.28763 -1.78531,3.81956 -3.99811,6.81211 -2.13118,2.88216 -2.40136,3.46007 -3.67732,7.86572 -4.38503,15.14065 -11.17768,26.99561 -20.55053,35.86606 -3.15414,2.98507 -4.8091,4.19191 -12.44192,9.073 -5.14077,3.28745 -9.90902,4.12047 -17.92406,3.13135 -4.6354,-0.57204 -6.67269,-0.42558 -8.22456,0.59125 -0.47685,0.31244 -0.9688,0.88884 -1.09323,1.28089 -0.30401,0.95785 -0.57267,0.90728 -2.33964,-0.44043 z"
     id="path5135"
     inkscape:connector-curvature="0"
     inkscape:export-xdpi="36"
     inkscape:export-ydpi="36" />
  <path
     style="fill:#66cc99;fill-opacity:0;stroke-width:0.70345396"
     d="m 306.61431,342.36182 c -8.60542,-11.43746 -15.06573,-29.02491 -16.61975,-45.24533 -0.24093,-2.51485 -0.5839,-5.2847 -0.76215,-6.15522 -0.68843,-3.36221 5.52859,-1.21902 10.29743,3.54982 3.52978,3.52978 8.5038,13.60414 10.49025,21.24693 1.81188,6.97112 3.52934,17.30828 3.5331,21.26525 0.003,2.72625 -1.60605,8.17058 -2.82449,9.55927 -0.27797,0.3168 -2.12944,-1.58252 -4.11439,-4.22072 z"
     id="path5137"
     inkscape:connector-curvature="0"
     inkscape:export-xdpi="36"
     inkscape:export-ydpi="36" />
  <path
     style="fill:#66cc99;fill-opacity:0;stroke-width:0.70345396"
     d="m 306.61431,342.36182 c -8.60542,-11.43746 -15.06573,-29.02491 -16.61975,-45.24533 -0.24093,-2.51485 -0.5839,-5.2847 -0.76215,-6.15522 -0.68843,-3.36221 5.52859,-1.21902 10.29743,3.54982 3.52978,3.52978 8.5038,13.60414 10.49025,21.24693 1.81188,6.97112 3.52934,17.30828 3.5331,21.26525 0.003,2.72625 -1.60605,8.17058 -2.82449,9.55927 -0.27797,0.3168 -2.12944,-1.58252 -4.11439,-4.22072 z"
     id="path5139"
     inkscape:connector-curvature="0"
     inkscape:export-xdpi="36"
     inkscape:export-ydpi="36" />
  <path
     style="fill:#66cc99;fill-opacity:0;stroke-width:0.99483413"
     d="m 675.55857,253.91039 c -3.30673,-3.92983 -3.88982,-7.37461 -3.47605,-20.53604 0.29344,-9.3341 0.71872,-11.61086 3.13241,-16.76946 1.69258,-3.61743 4.78921,-7.84441 7.86018,-10.72933 7.55637,-7.09862 25.92995,-15.24138 28.96754,-12.83779 0.64218,0.50815 2.95831,1.22143 5.14694,1.58507 2.18864,0.36364 5.2963,0.92411 6.90592,1.2455 l 2.92657,0.58434 -2.42916,1.26243 c -1.98101,1.02952 -3.62211,1.00326 -8.89558,-0.14238 -6.31832,-1.37262 -15.0833,-1.11743 -17.72641,0.51611 -0.74679,0.46154 2.60475,1.07683 7.92102,1.45419 5.06855,0.35978 9.6006,1.0392 10.07122,1.50982 0.47768,0.47768 -0.74147,1.79801 -2.75979,2.98885 -3.29937,1.94668 -4.18691,2.04189 -10.15171,1.08901 -6.90196,-1.1026 -15.339,-0.0514 -18.5825,2.31533 -1.31183,0.9572 0.57497,1.132 9.32009,0.86344 6.08758,-0.18694 10.96491,0.0617 10.96491,0.55904 0,0.49267 -1.45495,1.98723 -3.23321,3.32123 -2.72971,2.04775 -4.39515,2.43581 -10.69447,2.49192 -5.70508,0.0508 -8.47911,0.59399 -11.78571,2.30777 -5.10733,2.6471 -4.87198,3.67241 0.50054,2.1806 2.10315,-0.584 6.20418,-1.0643 9.1134,-1.06736 l 5.28948,-0.006 -3.66836,4.47675 c -2.0176,2.46221 -4.36845,4.47675 -5.2241,4.47675 -2.65299,0 -9.57785,3.81613 -10.95765,6.0385 -1.84939,2.97872 -0.82129,3.43384 2.47781,1.09689 1.5477,-1.09633 3.85368,-2.29539 5.12441,-2.66459 2.25071,-0.65392 2.27269,-0.59825 0.85041,2.15443 -1.38411,2.6788 -2.6934,7.09895 -4.07848,13.76887 -0.34087,1.64148 1.43402,-1.26841 3.94419,-6.46642 5.13497,-10.63337 5.46684,-10.60175 7.45718,0.71032 0.6945,3.94722 1.64159,6.9426 2.10464,6.65642 1.38886,-0.85836 0.95156,-9.67501 -0.72375,-14.59177 -1.51646,-4.45054 -1.49457,-4.69112 0.69621,-7.65431 1.24404,-1.68265 3.27586,-3.72374 4.51517,-4.53577 2.03204,-1.33144 2.34502,-1.30499 3.18762,0.26943 1.30313,2.43492 3.10119,12.64478 3.18492,18.08485 0.0385,2.49851 0.43261,5.4381 0.8759,6.53242 0.67725,1.6719 0.92563,1.37502 1.55517,-1.85891 1.06498,-5.4707 -0.0616,-15.34829 -2.46625,-21.62364 l -2.05682,-5.36764 2.752,-2.28756 c 5.10796,-4.24592 6.15464,-4.51692 7.1665,-1.85551 2.18305,5.74186 3.05305,10.86901 3.29052,19.39195 0.26297,9.43834 1.05923,11.46098 2.31928,5.89134 1.41923,-6.27323 0.6116,-16.04912 -1.89679,-22.95966 l -2.42719,-6.68683 4.38166,-2.56782 c 3.37343,-1.97696 4.69515,-2.30763 5.74411,-1.43708 2.15665,1.78987 3.57318,9.17234 3.57318,18.62226 0,6.9024 0.25461,8.45732 1.22582,7.48611 2.10524,-2.10524 2.08114,-14.82316 -0.0422,-22.2931 -2.05973,-7.24601 -1.81564,-8.01778 2.91109,-9.20411 2.31198,-0.58027 2.65987,-0.30743 3.22764,2.53146 0.35001,1.75001 0.64323,5.02849 0.6516,7.28552 0.008,2.25703 0.42059,4.74423 0.91601,5.52712 1.58038,2.49733 2.39939,-5.54443 1.18202,-11.60613 -0.61511,-3.06288 -1.00648,-5.67669 -0.8697,-5.80846 0.39059,-0.3763 11.88734,-5.39777 12.35828,-5.39777 0.23178,0 -1.04704,2.12646 -2.84182,4.72546 -1.79478,2.599 -4.41906,8.30687 -5.83173,12.68414 -5.84348,18.10648 -16.54063,32.48416 -30.20781,40.60128 -6.9955,4.15473 -7.04275,4.16625 -17.07604,4.16625 -6.70584,0 -10.5729,0.42422 -11.59572,1.27205 -1.29293,1.07174 -1.9377,0.79298 -4.09451,-1.77024 z"
     id="path5141"
     inkscape:connector-curvature="0"
     inkscape:export-xdpi="36"
     inkscape:export-ydpi="36" />
  <path
     style="fill:#66cc99;fill-opacity:0;stroke-width:0.99483413"
     d="m 383.92016,737.51354 c -5.19359,-2.39232 -8.73951,-5.80814 -11.60498,-11.17922 l -2.3227,-4.35369 -0.26262,-264.62588 c -0.18147,-182.84814 0.062,-266.19683 0.78771,-269.70932 1.41995,-6.87235 5.83314,-12.59336 12.13822,-15.73532 4.94866,-2.46602 5.79602,-2.55985 23.11843,-2.55985 h 17.98149 l 1.14431,6.02137 c 1.3518,7.11314 4.77842,12.07667 10.2721,14.87933 3.74748,1.91183 5.93693,1.98049 63.15396,1.98049 57.21704,0 59.40648,-0.0687 63.15398,-1.98049 5.49367,-2.80266 8.92029,-7.76619 10.27209,-14.87933 l 1.14431,-6.02137 h 18.97633 c 18.44821,0 19.12095,0.0721 24.17363,2.58994 6.05729,3.01847 9.71957,7.3843 11.69197,13.93808 2.11503,7.02776 2.11503,529.95617 0,536.98393 -1.9724,6.55378 -5.63468,10.91961 -11.69197,13.93808 -4.63454,2.30949 -6.36112,2.58994 -15.94516,2.58994 h -10.74785 l -0.003,-18.15573 c -0.002,-9.98564 -0.29616,-26.54963 -0.65471,-36.80886 l -0.65189,-18.65314 h 7.61855 7.61855 V 446.47029 c 0,-141.79025 -0.34378,-219.51469 -0.97263,-219.90334 -0.53494,-0.33061 -47.09318,-0.87751 -103.46275,-1.21532 l -102.48996,-0.6142 V 445.25496 665.7725 h 5.96901 5.969 l -0.003,16.66347 c -10e-4,9.16491 -0.29633,25.7289 -0.65532,36.80886 l -0.65271,20.1454 -9.54173,-0.0219 c -7.13115,-0.0163 -10.54709,-0.48489 -13.52109,-1.8548 z"
     id="path5143"
     inkscape:connector-curvature="0"
     inkscape:export-xdpi="36"
     inkscape:export-ydpi="36" />
  <path
     style="fill:#66cc99;fill-opacity:0;stroke-width:0.99483413"
     d="M 396.35558,445.91415 V 226.05581 h 102.96534 102.96533 l 0.15541,217.12255 c 0.0855,119.4174 0.21258,218.35366 0.28244,219.85835 0.12271,2.643 -0.0449,2.73579 -4.93944,2.73579 -8.08251,0 -8.51439,-0.68788 -9.52249,-15.16692 -1.15605,-16.6044 -3.08259,-21.77789 -10.72427,-28.79886 l -5.74518,-5.27851 4.05488,-4.84183 4.05488,-4.84183 -0.10926,-17.54194 c -0.11259,-18.07751 -1.785,-45.45666 -3.47184,-56.83789 -3.36726,-22.71908 -11.03672,-30.20698 -38.94074,-38.01886 -6.41787,-1.79672 -11.6751,-3.58693 -11.68273,-3.97826 -0.008,-0.39134 1.33278,-2.24529 2.97871,-4.11989 3.92277,-4.46779 6.47742,-10.40311 8.35458,-19.41061 0.84014,-4.03141 2.43596,-8.86951 3.54627,-10.75133 1.1103,-1.88183 2.01106,-4.85086 2.00168,-6.59785 -0.0177,-3.29702 -2.70063,-14.17115 -5.20185,-21.08336 l -1.43993,-3.97934 -9.93578,-0.49742 c -9.34435,-0.46781 -10.29574,-0.71993 -15.98335,-4.23561 -9.59328,-5.92991 -11.10233,-5.90467 -17.00547,0.28442 -4.32715,4.53675 -5.66347,5.32712 -10.22653,6.04844 -7.1735,1.13397 -9.6915,3.82357 -10.77838,11.51291 -0.46662,3.30118 -1.6463,8.53337 -2.62151,11.6271 -1.56689,4.97076 -1.61981,6.23113 -0.455,10.83667 2.03168,8.03303 2.83803,9.68519 4.74797,9.72829 1.22929,0.0278 2.97428,2.63093 5.74492,8.57029 2.18863,4.69175 4.09774,8.8343 4.24247,9.20566 0.14472,0.37136 -4.98321,2.44602 -11.39542,4.61034 -18.81424,6.3504 -26.0399,12.23515 -31.08434,25.3158 -7.33227,19.01321 -10.8751,34.38063 -14.45145,62.68465 -2.03991,16.14437 -1.96296,19.65897 0.57922,26.45355 l 2.10895,5.63667 -7.61954,6.95216 c -4.19075,3.82369 -8.51065,8.69889 -9.59979,10.83377 -2.34996,4.60631 -3.83759,14.94864 -3.88003,26.97479 l -0.0307,8.7048 h -5.969 -5.96901 z"
     id="path5145"
     inkscape:connector-curvature="0"
     inkscape:export-xdpi="36"
     inkscape:export-ydpi="36" />
</svg>
